<svg class="sketch-svg" xmlns="http://www.w3.org/2000/svg" viewBox="0 0 680 330" width="680" role="img" aria-labelledby="sk4yqysrt sk4yqysrd"><title id="sk4yqysrt">Combinations tree for n = 4, k = 2</title><desc id="sk4yqysrd">Root start=1 tries x in 1..3; choosing 4 is pruned. Children [1], [2], [3] try x in 2..4, 3..4, 4..4. Leaves 12, 13, 14, 23, 24, 34.</desc><path class="s-ink" d="M326.4 42.2 C330.6 41.1, 335.8 42.1, 339.7 44 C343.7 45.9, 348.2 49.5, 350 53.4 C351.9 57.4, 352.3 63.4, 350.7 67.9 C349.2 72.3, 344.5 77.8, 340.6 80.3 C336.7 82.8, 331.7 83.8, 327.3 83.1 C323 82.3, 317.6 79.3, 314.7 76 C311.7 72.8, 309.8 67.9, 309.5 63.3 C309.2 58.8, 309.4 52.4, 312.6 48.7 C315.9 45, 325.6 42.5, 328.9 41.2 C332.2 39.8, 332.7 40.6, 332.6 40.8 M328 40.5 C332.4 40, 337.1 42, 341.1 44.5 C345.1 46.9, 350.3 50.8, 351.9 55 C353.6 59.3, 353.1 65.8, 351 70.1 C348.8 74.5, 343.2 79.2, 338.8 81.1 C334.5 83, 329.3 82.3, 324.9 81.4 C320.5 80.4, 315.3 78.7, 312.4 75.5 C309.4 72.2, 306.6 66.4, 306.9 61.8 C307.3 57.1, 311.4 51, 314.7 47.6 C318 44.2, 324.8 42.6, 326.8 41.4 C328.8 40.2, 326.6 40.7, 326.7 40.7" stroke-width="1.7"/><text class="t-ink" x="330" y="62" font-size="22" font-weight="500" text-anchor="middle" dominant-baseline="middle">[ ]</text><text class="t-soft" x="330" y="20" font-size="18" font-weight="500" text-anchor="middle" dominant-baseline="middle">start=1, x in 1..3</text><path class="s-ink" d="M119.2 140 C122.9 137.7, 130 137.7, 134.6 138.9 C139.3 140, 144.4 143.4, 147.2 146.9 C149.9 150.5, 151.2 155.8, 151.2 160.3 C151.1 164.8, 149.7 170.6, 146.7 173.9 C143.7 177.2, 138 179.4, 133.3 180.2 C128.6 181, 122.4 180.7, 118.6 178.5 C114.7 176.4, 111.7 172.1, 110.3 167.5 C108.9 162.9, 108.4 155.4, 110.2 151 C111.9 146.6, 118.8 142.9, 120.8 141 C122.8 139.1, 122.3 139.3, 122.3 139.4 M123.4 139.7 C127.7 138.4, 135.8 139.2, 140.1 140.9 C144.5 142.6, 147.3 145.6, 149.4 149.9 C151.5 154.1, 153.4 162.1, 152.6 166.5 C151.7 170.9, 148.2 173.8, 144.2 176.4 C140.3 179, 133.6 182.3, 128.7 182.2 C123.8 182.1, 118.1 178.8, 114.7 175.5 C111.3 172.2, 109.2 167.1, 108.5 162.6 C107.8 158.1, 108 152.3, 110.6 148.5 C113.3 144.7, 122 141.4, 124.3 139.8 C126.6 138.1, 124.3 138.5, 124.5 138.8" stroke-width="1.7"/><text class="t-ink" x="130" y="160" font-size="22" font-weight="500" text-anchor="middle" dominant-baseline="middle">1</text><path class="s-ink" d="M337 138.5 C341.6 139.5, 346.9 143.7, 349.3 147.6 C351.8 151.6, 352.8 157.3, 351.8 162.1 C350.8 166.8, 346.9 173.2, 343.3 176.3 C339.7 179.4, 334.8 180.5, 330.4 180.7 C325.9 180.8, 320.3 179.8, 316.5 177.2 C312.8 174.6, 308.7 169.5, 307.9 165.1 C307.1 160.7, 309 154.8, 311.5 150.7 C314 146.5, 317.7 141.3, 322.9 140.1 C328 138.9, 338.4 141.8, 342.4 143.2 C346.3 144.6, 346.6 148.4, 346.6 148.5 M322.1 141.4 C325.9 139.3, 331.5 138.9, 335.5 139.8 C339.6 140.7, 343.8 143.3, 346.3 146.9 C348.8 150.5, 350.4 156.4, 350.3 161.4 C350.3 166.3, 349 173.1, 346 176.4 C343 179.7, 337.3 181, 332.6 181.1 C327.8 181.3, 321.2 179.8, 317.5 177.2 C313.8 174.5, 311.8 169.6, 310.6 165.4 C309.4 161.1, 308.5 155.9, 310.3 151.8 C312.2 147.7, 319.9 142.8, 322 140.7 C324 138.6, 322.8 139.4, 322.5 139.4" stroke-width="1.7"/><text class="t-ink" x="330" y="160" font-size="22" font-weight="500" text-anchor="middle" dominant-baseline="middle">2</text><path class="s-ink" d="M491.8 137.4 C496.1 137.5, 500.5 140.8, 503.9 144.1 C507.2 147.3, 511.3 152.1, 512.1 156.7 C512.9 161.4, 511.6 167.9, 508.8 172.1 C506.1 176.2, 500.2 180.2, 495.6 181.4 C491.1 182.6, 485.7 181.5, 481.6 179.4 C477.6 177.4, 473.4 173.4, 471.3 169.2 C469.3 165.1, 468.4 158.9, 469.1 154.4 C469.9 149.9, 471.9 144.7, 476 142.2 C480 139.7, 489.8 139.7, 493.6 139.4 C497.4 139.1, 498.5 140.2, 498.7 140.4 M500.4 139.1 C504.5 141.4, 507.2 148.4, 509 153 C510.8 157.5, 512.7 161.9, 511.3 166.4 C509.9 170.9, 504.8 177.3, 500.6 179.9 C496.5 182.4, 490.9 182.4, 486.6 181.8 C482.3 181.2, 477.8 180, 474.8 176.3 C471.7 172.5, 468.5 164.5, 468.1 159.3 C467.8 154.1, 469.5 148.6, 472.6 145.3 C475.7 142.1, 482.6 140.5, 487 139.7 C491.4 139, 497 140.4, 499.1 140.8 C501.2 141.3, 499.6 142.2, 499.6 142.6" stroke-width="1.7"/><text class="t-ink" x="490" y="160" font-size="22" font-weight="500" text-anchor="middle" dominant-baseline="middle">3</text><path class="h-red" d="M607.4 147.7 C607.4 147.7, 607.4 147.7, 607.4 147.7 M607.4 147.7 C607.4 147.7, 607.4 147.7, 607.4 147.7 M602.1 161.1 C609 152.2, 616.1 147.8, 623.6 137.2 M603.5 159.8 C608.2 155.8, 614 151.2, 622.8 139 M607.8 169.7 C616.5 156.2, 623.2 146.7, 632.3 141 M606.8 166.7 C612.9 159.1, 618.4 151.8, 631.1 139.1 M608.2 176 C618.7 163.7, 632 148.6, 638.4 142.4 M609.2 173.1 C617.9 163.1, 628.8 151.1, 636.6 140.8 M612 177.8 C618.5 168.4, 626.3 162.1, 638.5 145.7 M613.8 178.5 C621.2 169.7, 627.5 160.1, 640.4 145.4 M618.2 181.7 C624.9 173.4, 635.3 164.7, 645.6 149.5 M619.6 181.3 C625.6 171.4, 633.3 163.4, 645.3 150.4 M627.5 181.3 C633.1 171.9, 638.9 162.8, 646.2 157.9 M626.5 180.2 C631.1 174.9, 634.6 171.1, 646.8 157.1 M636.8 178.9 C638.3 176.3, 641.1 172.7, 646.7 167.8 M636.4 178.1 C639.4 175.5, 640.8 172.6, 646.2 167.5" stroke-width="1.1"/><path class="s-red" d="M619.3 138 C623.7 136.4, 630 137.3, 634.4 139.5 C638.8 141.8, 643.7 147, 645.6 151.5 C647.5 156.1, 647 162.4, 645.7 166.8 C644.3 171.3, 641.4 175.6, 637.5 178.2 C633.6 180.8, 627.1 182.9, 622.4 182.3 C617.7 181.8, 612.3 178.4, 609.1 174.9 C606 171.3, 603.8 165.3, 603.5 160.8 C603.2 156.3, 604.2 151.5, 607.3 147.9 C610.4 144.2, 618.7 140.6, 621.9 139 C625.2 137.4, 626.4 138.2, 626.7 138.4 M631 138.1 C635.5 139.6, 642 145.7, 644.5 149.9 C647 154.1, 646.8 158.7, 645.9 163.1 C645 167.5, 642.6 173.2, 639 176.2 C635.4 179.2, 628.6 180.9, 624.3 181.1 C619.9 181.4, 616.1 180.3, 612.7 177.7 C609.2 175.1, 604.5 170, 603.6 165.5 C602.6 161, 604.9 154.9, 607.1 150.8 C609.3 146.7, 612.6 142.8, 616.7 140.9 C620.9 138.9, 629.2 139.1, 631.8 139.1 C634.5 139, 632.6 140.4, 632.6 140.6" stroke-width="1.7"/><text class="t-ink" x="625" y="160" font-size="22" font-weight="500" text-anchor="middle" dominant-baseline="middle">4</text><path class="s-ink" d="M305.5 70.9 C267.1 93.8, 227.2 112.3, 155.7 149.6 M306.6 72.5 C274.7 86.7, 243 103.8, 154.1 147.9" stroke-width="1.6"/><text class="t-violet" x="218" y="107" font-size="19" font-weight="700" text-anchor="end" dominant-baseline="middle">1</text><path class="s-ink" d="M331 88.1 C331.2 99, 327.6 111, 328.4 132.8 M329.4 87.9 C331 96.6, 330.6 108.1, 330.4 132.5" stroke-width="1.6"/><text class="t-violet" x="320" y="107" font-size="19" font-weight="700" text-anchor="end" dominant-baseline="middle">2</text><path class="s-ink" d="M351.1 75 C380.8 92.2, 412.3 112, 466.7 143.9 M351.1 75.2 C381.2 91.4, 409.2 109.4, 467.8 145.1" stroke-width="1.6"/><text class="t-violet" x="422" y="107" font-size="19" font-weight="700" text-anchor="start" dominant-baseline="middle">3</text><path class="s-red" d="M352.5 69 C419.8 90.7, 485.8 114.2, 600.2 152 M353.9 69.3 C419.7 93.5, 487 115.4, 598.6 150.6" stroke-width="1.6" stroke-dasharray="6 7"/><text class="t-red" x="489.5" y="107" font-size="19" font-weight="700" text-anchor="start" dominant-baseline="middle">4 pruned</text><text class="t-red" x="625" y="204" font-size="18" font-weight="500" text-anchor="middle" dominant-baseline="middle">[4] can't</text><text class="t-red" x="625" y="225" font-size="18" font-weight="500" text-anchor="middle" dominant-baseline="middle">reach size 2</text><text class="t-soft" x="97" y="149" font-size="18" font-weight="500" text-anchor="end" dominant-baseline="middle">start=2</text><text class="t-soft" x="97" y="171" font-size="18" font-weight="500" text-anchor="end" dominant-baseline="middle">x in 2..4</text><text class="t-soft" x="362" y="149" font-size="18" font-weight="500" text-anchor="start" dominant-baseline="middle">start=3</text><text class="t-soft" x="362" y="171" font-size="18" font-weight="500" text-anchor="start" dominant-baseline="middle">x in 3..4</text><text class="t-soft" x="522" y="149" font-size="18" font-weight="500" text-anchor="start" dominant-baseline="middle">start=4</text><text class="t-soft" x="522" y="171" font-size="18" font-weight="500" text-anchor="start" dominant-baseline="middle">x in 4..4</text><path class="h-green" d="M32 265 C32 265, 32 265, 32 265 M32 265 C32 265, 32 265, 32 265 M27.7 282.4 C33.7 271.9, 40.8 266.2, 46.1 259.3 M26.3 281.4 C29.1 276.7, 35.2 271.1, 46.3 258.6 M30.1 288.3 C37.4 278.4, 44 269.7, 52.1 259.9 M28.2 287.5 C34.5 279.3, 40.4 273.4, 52.5 258.5 M30.9 295.4 C40.3 279.9, 50.6 272.2, 58 260.3 M31.3 294.5 C38 284, 45.7 277.6, 59.9 261.1 M35.5 299.2 C42.6 288.3, 50.3 278.2, 63.2 264.9 M36.1 297 C48.2 285, 58.3 269.7, 65.4 262.8 M39.7 301.2 C51.3 287.7, 62.7 272.6, 70.8 267.9 M41.5 300.6 C49.7 290.4, 56.3 282.5, 69.5 267.7 M48 301.5 C54.4 299, 57.9 291.3, 74.4 273 M47.7 302.5 C55.9 292.4, 63.9 282.1, 73.4 273.4 M54.2 302 C59.9 296, 65.7 289.7, 72.7 282.3 M56.1 302.4 C60.5 295.4, 66.3 290, 72.5 282.5" stroke-width="1.1"/><path class="s-green" d="M61.5 259.7 C66 261.7, 70.2 266.6, 72.1 271.4 C74 276.2, 74.8 283.6, 73 288.6 C71.2 293.5, 65.6 298.7, 61.2 301 C56.8 303.3, 51.3 303.3, 46.4 302.3 C41.5 301.3, 35.4 298.6, 31.9 294.8 C28.3 291, 25.2 284.5, 25.3 279.5 C25.3 274.5, 28.5 268.6, 32.1 264.9 C35.6 261.3, 40.2 257.8, 46.4 257.7 C52.5 257.6, 64.5 262.1, 69 264.6 C73.5 267.1, 73.4 272.3, 73.1 272.8 M38 258.6 C41.8 256.2, 47.9 255.4, 53 256.6 C58.2 257.9, 65.4 261.8, 68.8 266 C72.1 270.2, 73 276.8, 73.1 281.8 C73.1 286.7, 72.4 291.8, 69.1 295.6 C65.7 299.3, 58.5 303.3, 53.2 304.2 C47.9 305, 41.8 303.4, 37.2 300.8 C32.6 298.2, 27.1 293.4, 25.4 288.5 C23.8 283.6, 25.7 276.1, 27.5 271.2 C29.4 266.2, 34.6 260.9, 36.5 258.9 C38.4 256.8, 38.5 258.9, 39 259.1" stroke-width="1.7"/><text class="t-ink" x="50" y="280" font-size="22" font-weight="500" text-anchor="middle" dominant-baseline="middle">12</text><path class="h-green" d="M118 258.9 C118 258.9, 118 258.9, 118 258.9 M118 258.9 C118 258.9, 118 258.9, 118 258.9 M105.6 282.6 C113.4 272, 122 268.1, 125.1 259.8 M106.8 281.6 C113.2 273.9, 119.3 266.5, 126.4 257.7 M105.3 290.4 C113.9 283.3, 118.6 274.2, 136 255.7 M107.1 289.9 C118.9 276.5, 128.4 264.4, 135.8 256.6 M110.2 293.4 C122.9 281.2, 133 266.4, 139.7 261 M110.3 295.1 C118.5 285.6, 126.4 275.7, 141.6 260.9 M113.4 298.4 C125.5 289.8, 134.1 280.6, 145.1 265.2 M115.4 297.9 C124.8 285.9, 136.5 275.2, 144.6 264 M121.8 300.8 C125.9 291.4, 136.2 284.9, 148.2 266.3 M119.7 302 C127.7 293.5, 134.2 284.4, 150.6 267.7 M128.1 301.9 C135 291.7, 145.3 281.4, 152.3 274.4 M125.7 303.8 C134.5 295.5, 140.9 289.4, 152.7 274.6 M132.4 305.9 C139.6 297.7, 148.1 286.9, 152.8 278.8 M134.4 304.8 C140 298.6, 144.3 293.2, 155.4 280.9 M147.6 298 C147.9 297.8, 148 297.6, 148.4 297.3 M147.7 298 C147.9 297.7, 148.1 297.4, 148.3 297.2" stroke-width="1.1"/><path class="s-green" d="M135.8 257.2 C140.7 258.1, 146.3 262.8, 149.4 266.7 C152.6 270.6, 154.8 275.6, 154.6 280.7 C154.4 285.8, 151.9 293.5, 148.3 297.4 C144.6 301.4, 137.8 303.8, 132.5 304.3 C127.3 304.9, 121.4 303.6, 116.8 300.7 C112.3 297.8, 106.9 291.7, 105.4 286.7 C104 281.7, 106 275.4, 108.1 270.7 C110.2 266.1, 112.8 260.8, 118.2 258.7 C123.5 256.6, 135.8 257.7, 140.1 258 C144.4 258.4, 144.2 260.6, 144.1 260.9 M138.9 258 C144 259.8, 150.5 264.8, 152.8 269.7 C155 274.5, 154 282, 152.4 287 C150.9 291.9, 147.6 296.5, 143.5 299.2 C139.3 301.9, 132.9 303.4, 127.7 303 C122.6 302.6, 116.1 300.3, 112.3 296.9 C108.6 293.4, 105.7 287.3, 105.2 282.2 C104.8 277.2, 106.9 270.8, 109.6 266.6 C112.4 262.3, 116.9 258.3, 121.9 256.8 C126.9 255.3, 136.8 257.3, 139.6 257.5 C142.4 257.6, 139 256.9, 138.7 257.4" stroke-width="1.7"/><text class="t-ink" x="130" y="280" font-size="22" font-weight="500" text-anchor="middle" dominant-baseline="middle">13</text><path class="h-green" d="M192.8 261.7 C192.8 261.7, 192.8 261.7, 192.8 261.7 M192.8 261.7 C192.8 261.7, 192.8 261.7, 192.8 261.7 M187.3 279.6 C191.4 269.7, 196.3 264, 205.9 259.4 M186.7 278.6 C190 273.4, 193.9 269.3, 203.9 258.1 M186.8 286.2 C195.5 277.8, 205.6 264.8, 214 258.7 M188.1 286.2 C195.3 278.1, 202.7 269, 213.2 257.5 M188.1 293.4 C194.2 287.2, 202.3 276.9, 218.9 260.7 M190.3 293.3 C198.7 282.8, 206.5 274.3, 218.4 259.8 M195 298.8 C203.6 287.8, 213.3 274.9, 227 261.4 M194.1 297.7 C202.3 285.7, 211.3 277.1, 226.1 261.3 M199.4 300.8 C210.8 289, 216.2 280.8, 227.9 267.4 M200.1 299.3 C205.3 294, 211.1 286.4, 227.6 266 M206.2 300.6 C213.6 292.2, 226.4 280.1, 234.6 271.9 M204 303.3 C214.1 290.2, 224.8 279.5, 232.1 271.9 M213.8 302.9 C221.5 293.1, 227.7 287.1, 234.1 279.6 M213.6 302.6 C219.5 294.9, 227.9 285.5, 232.8 279.1 M230.9 291 C231.4 290.7, 231.5 290.4, 231.8 290.1 M231 290.9 C231.3 290.6, 231.4 290.4, 231.7 290.2" stroke-width="1.1"/><path class="s-green" d="M209.7 256.4 C214.5 255.9, 221.1 257.7, 225.2 260.8 C229.3 263.8, 233.3 269.8, 234.3 274.8 C235.4 279.7, 234.3 285.6, 231.7 290.2 C229.1 294.8, 223.3 300.1, 218.5 302.2 C213.7 304.3, 207.7 304.3, 202.9 302.8 C198.1 301.4, 192.5 297.6, 189.7 293.4 C186.8 289.1, 185.4 282.7, 186 277.4 C186.5 272.1, 188.9 265.1, 193 261.5 C197.1 257.9, 207.3 256.7, 210.6 255.7 C213.8 254.8, 212.5 255.6, 212.6 255.9 M217.2 257.2 C222.1 258, 226.5 262.1, 229.5 266.5 C232.5 270.8, 235.5 278.5, 235.1 283.3 C234.7 288.1, 231 291.5, 227 295.1 C223 298.8, 216.1 304.8, 210.9 305.4 C205.7 305.9, 199.9 301.7, 195.8 298.3 C191.6 295, 187.1 290.3, 186 285.4 C184.9 280.6, 186.9 273.7, 189.1 269.1 C191.4 264.6, 194.9 260.5, 199.5 258.3 C204.1 256.1, 214 255.7, 216.7 255.8 C219.5 255.9, 216.4 258.5, 216.2 258.8" stroke-width="1.7"/><text class="t-ink" x="210" y="280" font-size="22" font-weight="500" text-anchor="middle" dominant-baseline="middle">14</text><path class="h-green" d="M269 268.3 C269 268.3, 269 268.3, 269 268.3 M269 268.3 C269 268.3, 269 268.3, 269 268.3 M269 281.8 C275.2 270.8, 278.1 266, 286.9 259 M266.5 278.8 C273.8 272.6, 280.5 266, 286 258.5 M267.7 288.1 C273.5 278.5, 281.3 274.4, 292.8 256.6 M268.3 288.5 C272.9 281.9, 280.2 275.7, 293.7 257.7 M272.4 292.1 C278.4 284.4, 286.6 275.5, 302.6 256 M270.1 294.5 C280.2 282.3, 288.6 272, 302 258.7 M273.5 298.5 C281.9 289.8, 292.6 277.7, 305.1 262.2 M274.1 299.1 C281.6 289.5, 289.9 281.3, 306.1 263 M279.7 298.7 C293.1 289.4, 302.6 275.2, 310.3 266.4 M280.9 301.1 C290.5 289.3, 301.6 276.4, 309.3 266.5 M288.2 304.4 C294.9 294.8, 304.6 282.1, 313.2 274 M286.2 301.4 C293.4 295.2, 299.8 287.1, 314.3 271.5 M295.3 299.9 C298.6 298.6, 302 294.4, 312.3 279.7 M295.2 302.6 C300.6 294.8, 305.9 289.6, 313.7 281.1" stroke-width="1.1"/><path class="s-green" d="M281.4 257.6 C286.3 255.7, 294.7 254.4, 299.8 256.4 C304.9 258.3, 309.9 264.5, 312.1 269.1 C314.4 273.8, 314.4 279.3, 313.4 284.2 C312.3 289.1, 309.8 295.2, 305.9 298.3 C301.9 301.5, 295 303, 289.6 303.1 C284.2 303.3, 277.4 302.3, 273.4 299.2 C269.4 296.1, 266.5 289.6, 265.8 284.4 C265.1 279.2, 266.4 272.7, 269.2 268 C271.9 263.4, 279.6 258.3, 282.3 256.6 C285 254.9, 285.1 257.6, 285.4 257.9 M292 257 C296.7 257.4, 302 260.4, 305.7 263.6 C309.3 266.8, 313.1 271.1, 313.8 276.2 C314.6 281.2, 312.8 289.2, 310.1 293.8 C307.3 298.4, 302.3 302.3, 297.2 303.8 C292.2 305.2, 284.6 304.6, 279.6 302.6 C274.6 300.6, 269.7 296.3, 267.4 291.8 C265.1 287.3, 264.8 280.6, 265.9 275.4 C267.1 270.1, 270.1 263.8, 274.2 260.4 C278.3 257, 287.2 255.3, 290.4 254.8 C293.7 254.3, 293.1 256.9, 293.5 257.6" stroke-width="1.7"/><text class="t-ink" x="290" y="280" font-size="22" font-weight="500" text-anchor="middle" dominant-baseline="middle">23</text><path class="h-green" d="M350.2 266 C350.2 266, 350.2 266, 350.2 266 M350.2 266 C350.2 266, 350.2 266, 350.2 266 M346.1 276.9 C354.1 269.8, 358.9 261.8, 366.5 257.3 M346.2 278.3 C351.3 273.7, 356.6 267.2, 366.6 255.4 M349.1 286.4 C359.9 275.4, 365.1 266.7, 373.3 259.1 M349.1 285 C357.5 276.8, 364.5 266.4, 373.6 258.2 M351.5 293.1 C360.3 284.9, 367.8 273.8, 382.2 257.5 M351.2 293.8 C359.9 282.3, 370.2 271.5, 379.3 259.4 M351.9 299.9 C364.8 289.7, 371.4 279.2, 385.5 262.5 M354 297.7 C365.7 284, 376.7 271.7, 383.9 262.1 M357.3 301.2 C367 291.7, 374.6 286.9, 390.6 264.9 M358.9 301 C368.1 289.1, 378.8 279.8, 389 266.5 M365.6 306.4 C372.5 294.3, 380.1 284.3, 390.3 270.3 M363.6 304.3 C375.1 293, 385.9 280.2, 392.9 272.1 M372.1 303.9 C380.9 296.4, 382 292.7, 394.1 282.2 M374.2 302.9 C378.3 298.5, 381.6 293.7, 393.8 281.1 M384.1 300.7 C384.2 299.7, 385.4 299.3, 386 298.1 M383.9 300.5 C384.6 299.6, 385.4 298.8, 385.9 298.3" stroke-width="1.1"/><path class="s-green" d="M381.6 259.1 C386 261, 390.1 266.4, 392.2 271.1 C394.3 275.7, 395.6 282, 394.2 287 C392.9 291.9, 388.6 297.6, 383.9 300.6 C379.3 303.7, 371.7 306, 366.3 305.3 C360.9 304.6, 355 300.7, 351.7 296.5 C348.4 292.3, 346.6 285.2, 346.4 280.1 C346.1 275, 347.2 269.9, 350.4 265.9 C353.6 261.8, 359.9 256.6, 365.6 255.8 C371.3 255, 380.5 259.4, 384.5 261 C388.4 262.6, 389.2 265.1, 389.1 265.4 M366.7 254.2 C371.6 253.6, 379.9 258.1, 384.6 261.1 C389.4 264.1, 393.8 267.7, 395.2 272.3 C396.5 277, 395 284, 392.5 288.8 C390 293.7, 384.9 299.1, 380.1 301.5 C375.3 303.9, 368.9 304.1, 363.7 303 C358.6 301.8, 352.3 298.7, 349.4 294.7 C346.6 290.6, 346.2 283.8, 346.7 278.6 C347.2 273.3, 349.1 267.1, 352.5 263.1 C356 259.1, 364.9 255.5, 367.4 254.4 C369.9 253.4, 367.5 256.5, 367.5 257" stroke-width="1.7"/><text class="t-ink" x="370" y="280" font-size="22" font-weight="500" text-anchor="middle" dominant-baseline="middle">24</text><path class="h-green" d="M477.1 259.7 C477.1 259.7, 477.1 259.7, 477.1 259.7 M477.1 259.7 C477.1 259.7, 477.1 259.7, 477.1 259.7 M472 273.9 C475.6 268.5, 480.5 264, 485.1 259.1 M470.2 275.3 C477.3 269.5, 481.2 263, 486.3 258 M469 289 C476.4 281.1, 483.8 272.3, 496.1 256.9 M468.4 288 C474.2 280.6, 481.3 272.8, 495.9 256.2 M471.6 295.3 C479.7 282, 491 273.2, 499.2 259.5 M471.2 294.2 C480.9 281.9, 490.9 270.3, 500.5 260.5 M476.3 297.4 C484.4 289.8, 491.6 276.3, 503.9 262.5 M475.5 299 C486.2 286, 493.9 276.6, 506.3 263.1 M480.9 304.2 C488.9 291.6, 496.7 279.9, 509.6 266.7 M478.7 303.5 C487.7 292, 498.3 281.4, 511.7 265.6 M487.2 305.8 C493.8 297, 498.7 286.1, 514.2 270.8 M485.4 304.6 C494.3 296.1, 501.2 287.8, 513.8 272.4 M494.4 304.7 C500.2 299.3, 508.9 290.5, 515.2 278.5 M492.1 306.6 C502 297.3, 508.3 287.3, 515.4 279.3 M500.3 309.7 C501.5 303, 508.4 300.8, 520.5 285.2 M498.8 308.4 C504.1 301.2, 512.1 294.2, 519.1 284.6" stroke-width="1.1"/><path class="s-green" d="M495.9 256.7 C500.9 257.2, 506 260, 509.3 264 C512.6 268.1, 515.7 275.5, 515.6 281 C515.5 286.4, 512.1 292.7, 508.6 296.7 C505.1 300.7, 500 304.3, 494.7 304.8 C489.4 305.4, 481.5 303, 476.8 300.2 C472.2 297.3, 468.5 292.2, 466.8 287.5 C465.1 282.8, 464.9 276.7, 466.6 272 C468.4 267.3, 471.8 261.8, 477.5 259.4 C483.1 256.9, 496.2 257.3, 500.6 257.5 C505 257.6, 504.2 260.1, 503.9 260.4 M484.9 255.3 C489.7 253.8, 495.3 257, 499.9 259.2 C504.5 261.4, 510.1 264, 512.5 268.6 C514.9 273.2, 516 281.2, 514.4 286.7 C512.8 292.3, 507.1 298.7, 502.7 301.9 C498.3 305.1, 493.2 306.8, 488 306 C482.9 305.2, 475.9 301.2, 472.1 297.2 C468.2 293.2, 465 287, 464.9 281.9 C464.7 276.7, 468.1 270.9, 471.4 266.4 C474.6 261.9, 482.1 256.3, 484.4 254.8 C486.6 253.2, 484.7 256.2, 484.8 257" stroke-width="1.7"/><text class="t-ink" x="490" y="280" font-size="22" font-weight="500" text-anchor="middle" dominant-baseline="middle">34</text><path class="s-ink" d="M114.7 180.5 C104.1 200.9, 89.3 222.6, 68.2 256.5 M116.8 181 C104.3 196.4, 93.9 212.5, 66.8 254.2" stroke-width="1.6"/><text class="t-violet" x="80" y="216" font-size="19" font-weight="700" text-anchor="end" dominant-baseline="middle">2</text><path class="s-ink" d="M131.7 183.5 C128.7 201.7, 131.3 217.7, 128.4 249.7 M131.1 184.4 C129.1 199.9, 129.2 217, 130.6 248.9" stroke-width="1.6"/><text class="t-violet" x="138" y="216" font-size="19" font-weight="700" text-anchor="start" dominant-baseline="middle">3</text><path class="s-ink" d="M144.3 182.6 C156.2 198.7, 167.4 218.5, 193.1 252.9 M143.1 181.6 C158.1 199.1, 170.9 219.3, 194.4 255.9" stroke-width="1.6"/><text class="t-violet" x="180" y="216" font-size="19" font-weight="700" text-anchor="start" dominant-baseline="middle">4</text><path class="s-ink" d="M321.3 184.4 C317.2 203.6, 308.9 218.4, 300.6 252.1 M321.8 183.7 C315.4 204, 308.3 221.2, 298.8 252.1" stroke-width="1.6"/><text class="t-violet" x="300" y="216" font-size="19" font-weight="700" text-anchor="end" dominant-baseline="middle">3</text><path class="s-ink" d="M335.8 183.2 C342.7 202.6, 350.6 218.6, 358.5 250.3 M338 182.9 C344.5 205.4, 352.5 225.6, 360.3 251.9" stroke-width="1.6"/><text class="t-violet" x="360" y="216" font-size="19" font-weight="700" text-anchor="start" dominant-baseline="middle">4</text><path class="s-ink" d="M491 183.4 C490.8 202.4, 487.9 218.9, 489.4 251.4 M490.4 185.6 C489.6 206.9, 490.3 227, 490.2 250.1" stroke-width="1.6"/><text class="t-violet" x="500" y="216" font-size="19" font-weight="700" text-anchor="start" dominant-baseline="middle">4</text></svg>
