<svg class="sketch-svg" xmlns="http://www.w3.org/2000/svg" viewBox="0 0 660 330" width="660" role="img" aria-labelledby="sklemyant sklemyand"><title id="sklemyant">Adjacency matrix and adjacency list of the example graph</title><desc id="sklemyand">Matrix: 25 cells, 8 of them 1. List: 0:[1,2] 1:[0,2] 2:[0,1] 3:[4] 4:[3], 8 entries.</desc><text class="t-ink" x="160" y="22" font-size="24" font-weight="700" text-anchor="middle" dominant-baseline="middle">adjacency matrix</text><path class="s-ink" d="M60.7 70.7 C69.4 68.5, 76.9 69.7, 100.3 71.5 M59.3 70.1 C72.5 70.1, 82.5 70.6, 102.3 69.1 M101.6 72.1 C104.2 83, 103.4 95.9, 103.1 109 M101.3 69.3 C102.7 81.1, 102.3 90.4, 100.9 109 M101.4 109.4 C92.6 111.1, 81.9 112.1, 59.1 111.1 M102.9 110.7 C89.1 109.5, 76.3 108.7, 59.8 109.5 M61.6 109.2 C59.5 98.9, 60.6 85, 60 70.6 M60.1 109.6 C59.8 99, 60.6 88.6, 60.7 69" stroke-width="1.4"/><text class="t-ink" x="81" y="91" font-size="22" font-weight="600" text-anchor="middle" dominant-baseline="middle">0</text><path class="h-blue" d="M101.9 70.1 C101.9 70.1, 101.9 70.1, 101.9 70.1 M101.9 70.1 C101.9 70.1, 101.9 70.1, 101.9 70.1 M102.5 81 C105.1 77.1, 109.2 71.2, 111 68.7 M101.4 80 C106 76.4, 108.7 71.6, 110.7 69.8 M103.5 92.8 C107.4 83.6, 112.5 80.2, 119.1 70.3 M101.5 91.1 C108.4 84.1, 115.9 75.6, 120.4 70.1 M102.5 103.7 C109.7 89.5, 122.6 80.7, 130 69.9 M101.8 103 C108.9 93, 116.5 86.5, 130.1 69.8 M105.1 110.4 C113.1 99.2, 122.9 92.2, 139.5 68.2 M104.1 111 C113.9 97.7, 124.2 84.5, 139 70.3 M114.6 110.6 C125.2 97.7, 137.2 85.7, 146.6 69.9 M112.6 110.3 C125.8 95.9, 137 81.3, 146.2 71.1 M121 110.8 C125.4 107.2, 132.9 98.3, 144.7 80.9 M121.7 110.2 C127.3 105.8, 132.8 99.6, 147.4 82.9 M131.7 111.2 C136.2 108.2, 141.6 102.4, 146.1 92.7 M131 112.1 C135.1 107.9, 138.7 103.3, 147.2 92.1 M141.1 112.2 C142.2 110.5, 142.5 108.8, 145.7 103.6 M140.3 111.8 C142.2 109, 144.2 107.5, 146.1 104.4" stroke-width="1.1"/><path class="s-blue" d="M101.5 69.5 C108.9 72.3, 120.5 70.3, 143.6 69.8 M101.7 69.3 C114.8 70.2, 127.4 70, 144.8 71 M143.1 68 C145.4 82.8, 145.4 97.7, 144.5 110.2 M144.7 69.5 C143.5 84, 144.2 97, 144.5 110.5 M142.4 111.4 C132.8 108.7, 122.9 109.1, 100.9 108.5 M144.9 109.5 C131 111.4, 120.1 110.3, 101.7 110.7 M100.6 111.1 C100.9 103.9, 100 92.1, 100.4 71.5 M101.2 109.6 C102.2 100.8, 101.3 91.6, 102.1 69" stroke-width="1.4"/><text class="t-ink" x="123" y="91" font-size="22" font-weight="600" text-anchor="middle" dominant-baseline="middle">1</text><path class="h-blue" d="M144.2 69.7 C144.2 69.7, 144.2 69.7, 144.2 69.7 M144.2 69.7 C144.2 69.7, 144.2 69.7, 144.2 69.7 M143.5 80.1 C148.2 77.6, 150.9 73.6, 152.8 69 M144 80.7 C147.1 77.4, 149.3 74.9, 153.7 69.6 M146.3 91.8 C148.7 85.5, 155.5 78.1, 164.3 67.8 M143.9 91.9 C149.1 85.1, 153.6 81, 162.9 69.2 M142.9 102.5 C148.1 93.7, 156 89.9, 172.4 67.8 M144.1 101.5 C153 92.4, 160.7 81.5, 171 70.2 M146.5 108.9 C155.5 98.7, 169.5 84.3, 182.7 68.5 M146 110.6 C159.3 95.2, 173.1 80.1, 182.1 69.3 M154.8 111.7 C166.5 100, 177 86, 185.6 75.3 M155.4 110.8 C162.7 101.6, 172.8 91.4, 187 75.6 M166.1 110.7 C173 100.7, 180.3 91.2, 185.9 83 M164.8 110.8 C168.8 105.9, 174.6 98.4, 186.8 85.3 M173.2 109.8 C178.8 108, 179.1 100.9, 186.5 96 M174.9 110.4 C178.2 106.4, 181.4 101.9, 185.8 96.6 M183 109.8 C184.2 109.6, 184.5 109.2, 186.6 106.6 M183.1 110.4 C184.4 108.9, 185.3 107.9, 186.3 106.2" stroke-width="1.1"/><path class="s-blue" d="M142.2 68.4 C152.7 70.8, 164.1 70.1, 186.9 68 M144.1 70.6 C157.1 69.3, 170.2 70.7, 185 70.8 M184.6 68.3 C185.8 82.7, 186.5 99.5, 185.8 111.5 M185.9 69.8 C186.6 84.7, 186.2 101.4, 185.8 109.8 M187.7 108.9 C173.1 110.7, 164 110.5, 142.8 110.2 M187 110.4 C175 110.1, 163.9 108.8, 143.6 109.6 M144 108.6 C142.2 96.6, 143.8 87.5, 145.3 68 M144.6 109.6 C144.7 94.6, 144.3 78.6, 143.5 69" stroke-width="1.4"/><text class="t-ink" x="165" y="91" font-size="22" font-weight="600" text-anchor="middle" dominant-baseline="middle">1</text><path class="s-ink" d="M187.3 71.7 C196.6 70.3, 203.3 70.7, 225.8 70.6 M186.4 69.8 C199.4 69.3, 215.2 70.1, 227.5 70.5 M226.1 68.6 C227 86.9, 228.5 101.3, 227.1 108.3 M227.1 70 C228.4 79.6, 229.1 89.8, 227.2 109.1 M228.7 110.9 C217.8 108.3, 205 111.9, 184.6 112 M229 109.2 C216.8 109.8, 207.7 110.4, 185.6 110.8 M187.4 110.5 C187.9 93.6, 187.6 78.6, 185.7 68.8 M185.7 109.6 C187.1 96.5, 187.3 81.6, 187.1 68.9" stroke-width="1.4"/><text class="t-ink" x="207" y="91" font-size="22" font-weight="600" text-anchor="middle" dominant-baseline="middle">0</text><path class="s-ink" d="M228.1 70.5 C236 68.8, 246.8 70.5, 269.2 68.9 M228.8 69 C243.8 69.4, 258 69.6, 270 70.2 M272 68.8 C268.3 86.8, 270.5 103.1, 268.5 109.5 M270.6 70.2 C269.2 82.5, 268.9 96.4, 270.7 110.5 M269.6 108.5 C258.1 110.3, 246 108.9, 226.4 109.4 M268.9 110.1 C260.8 110.8, 251.5 108.9, 227.5 109.7 M226.4 108 C228.3 98.7, 226.1 90, 226.2 69.7 M229.1 109.6 C228.6 98.3, 227.2 84.6, 228.5 68.9" stroke-width="1.4"/><text class="t-ink" x="249" y="91" font-size="22" font-weight="600" text-anchor="middle" dominant-baseline="middle">0</text><path class="h-blue" d="M59.8 110.3 C59.8 110.3, 59.8 110.3, 59.8 110.3 M59.8 110.3 C59.8 110.3, 59.8 110.3, 59.8 110.3 M58.3 122.3 C60.3 117.3, 65.1 116, 69.9 111.6 M60.3 121.2 C62.4 118.5, 65 115.7, 69.7 110.6 M58.7 130.2 C66.3 122.4, 74.1 116, 80.5 110.1 M59.5 131.6 C66.5 123.3, 73.9 117, 79.6 109.8 M59.9 141.7 C65.7 137, 73.7 127.1, 89 110.9 M60.1 142 C69.7 130.4, 78 119.8, 87.3 110 M60 149.7 C74.8 132.4, 89.5 117.1, 97 110 M61.2 150.5 C72.7 136.6, 85.4 124.1, 98.3 109.3 M69.1 151.1 C79.3 142.6, 88.3 133, 103.8 115.3 M71 150.7 C83.8 136, 94.8 123.4, 101.5 115 M82.2 151.2 C87.5 143.9, 95.3 133.3, 101.4 126.4 M81.1 151 C85.2 145.2, 91.3 138.6, 101.5 125.1 M88.7 149.6 C92.1 144.9, 96.4 143.1, 100 138.2 M89.1 151.3 C93.7 145.9, 99.7 140, 102.6 136.1 M98.8 151 C99.3 149.8, 100.5 148.2, 102.3 146.9 M98.8 150.8 C99.8 149.7, 100.5 148.6, 101.9 146.9" stroke-width="1.1"/><path class="s-blue" d="M58.8 109.4 C69.9 108.3, 76 111.2, 102.5 111.5 M59 110.4 C76.1 110.7, 93 110.3, 102.4 110 M103.5 109.1 C103 118.6, 101.7 128.9, 104.2 150.8 M101.8 110.4 C102.3 125.3, 100.9 140.8, 102.1 149.8 M100.6 150.4 C88.3 152.3, 77.1 150.2, 58.2 151.1 M101 151 C86.4 149.6, 68.5 149.6, 59.4 150.9 M59.9 149.9 C59.6 135.7, 59.9 121.1, 61 110.6 M60.2 149.6 C58.8 137.9, 60.1 127.6, 59.9 108.9" stroke-width="1.4"/><text class="t-ink" x="81" y="131" font-size="22" font-weight="600" text-anchor="middle" dominant-baseline="middle">1</text><path class="s-ink" d="M104 108.2 C109.3 112.1, 119.6 111.8, 145.8 109.7 M101.4 109.6 C110 110.8, 119 109.7, 144.9 109.7 M145 109.4 C144.3 118.5, 143.7 126.3, 145.5 152 M143 110.6 C144 120.2, 143.8 131.4, 143.4 149.1 M146 148 C128.6 149.8, 118.1 151.6, 100 148.5 M143 149.8 C128.2 149.3, 112.3 149, 101.4 149.8 M103.3 151.8 C100.9 140.7, 103.7 132.5, 101.5 111.4 M101.3 149.6 C101.2 139.8, 103.1 130.6, 101.2 108.9" stroke-width="1.4"/><text class="t-ink" x="123" y="131" font-size="22" font-weight="600" text-anchor="middle" dominant-baseline="middle">0</text><path class="h-blue" d="M143.7 110.3 C143.7 110.3, 143.7 110.3, 143.7 110.3 M143.7 110.3 C143.7 110.3, 143.7 110.3, 143.7 110.3 M142.7 121.4 C147.9 116.5, 148.8 113.6, 153.4 109.1 M143.1 121.8 C147.5 116.2, 151.4 112.1, 154.1 110.2 M143.5 133.2 C148.8 126.1, 151.8 120.4, 161.5 110.4 M143.6 131.9 C150.5 124.2, 157.7 115.7, 163.9 108.9 M145.8 142.8 C154.6 132.1, 163.5 119.8, 173.1 111.8 M143.1 142.6 C151.1 133.3, 157.9 124.9, 172.9 109.3 M146.6 152 C160.7 135.2, 172.2 122.1, 182.6 111.2 M146.7 150.6 C153.9 140.5, 162 132.4, 181.5 110.3 M153.2 149.5 C163.9 144.2, 167.9 132.9, 187.1 115.7 M156 150.1 C160.6 143.4, 167.1 134.7, 186.2 113.6 M163 151.8 C169.4 144.2, 178 132.5, 184.6 124.7 M164.4 150.6 C169.8 144.7, 175.7 138.4, 185.6 126.1 M173.9 149.2 C177.3 145, 181.5 142.5, 185.3 135.3 M172.9 150.3 C178.8 146.3, 183 139.7, 186.6 135.6 M182.5 150.4 C183.2 149.5, 184.6 149, 185.9 147.3 M182.5 150.7 C183.4 150.1, 184.2 149.1, 186.1 147.3" stroke-width="1.1"/><path class="s-blue" d="M144.7 111.5 C153.2 110.6, 163.2 111.6, 184.8 108 M143.8 111 C154.5 110.9, 164 109.1, 185.2 109.4 M186.4 109.7 C185.5 118.4, 185.7 128.1, 186.8 148.9 M186.5 110.9 C184.9 123.1, 185.8 135.8, 187 150.6 M186.9 150 C173.3 151.8, 159.1 148.6, 141.9 150.2 M185.1 150.7 C172.3 150.3, 156.1 149.7, 143.3 151 M142.3 149.3 C142.2 137.8, 143.1 123.6, 141.9 107.9 M144.7 149.6 C143.7 141.6, 143.9 133.6, 144.8 111.1" stroke-width="1.4"/><text class="t-ink" x="165" y="131" font-size="22" font-weight="600" text-anchor="middle" dominant-baseline="middle">1</text><path class="s-ink" d="M185.5 110.4 C197 110.1, 202.4 112.2, 228.1 110.6 M186.2 110.2 C196.8 110.9, 206.8 110.8, 227.6 109.1 M227.9 110 C226.8 122.6, 227.7 129.9, 228.2 150.1 M227.7 111.1 C228 118, 227.7 126.4, 228.3 149.9 M227.9 151.9 C213.6 149.4, 195.8 150, 188.1 152 M227.2 149.5 C214.1 150, 202.1 151.3, 185.2 149.9 M185.7 151.2 C187.9 142.8, 186.9 135, 186.8 108.8 M185.8 149.6 C186.1 135.4, 186.9 120.7, 186.2 111.1" stroke-width="1.4"/><text class="t-ink" x="207" y="131" font-size="22" font-weight="600" text-anchor="middle" dominant-baseline="middle">0</text><path class="s-ink" d="M226.2 109.2 C236.5 108.6, 246 107.6, 271.4 108.8 M228.6 109.4 C239 110, 249.6 109.3, 270.1 111.1 M269.4 110.2 C271.5 122.5, 268.8 131.7, 269.5 151.4 M268.9 109.1 C269.7 120.9, 270.6 130.8, 269.7 149.2 M268.8 149.5 C253.8 151.4, 236.8 151.4, 229.9 149.3 M269.2 150.4 C258.1 148.8, 245.9 149.8, 227.2 151 M229.1 148.7 C229.2 139.9, 226.3 126.1, 227.3 109.7 M227 149.6 C227.6 137.3, 226.8 123.7, 227.6 111.1" stroke-width="1.4"/><text class="t-ink" x="249" y="131" font-size="22" font-weight="600" text-anchor="middle" dominant-baseline="middle">0</text><path class="h-blue" d="M59.9 150.1 C59.9 150.1, 59.9 150.1, 59.9 150.1 M59.9 150.1 C59.9 150.1, 59.9 150.1, 59.9 150.1 M61.3 159.7 C62.2 156.5, 66.9 151.3, 70.5 151.7 M60.1 161.4 C63.1 157.1, 67.3 152.9, 68.5 149.6 M60.9 170.8 C66.6 163.1, 70.3 158.9, 77 149.1 M59.9 170.9 C64.4 166.4, 68.3 160.4, 77.7 150.1 M58.3 182 C72 170.7, 80.8 157, 89 151.3 M59.1 183.1 C67.6 173.7, 74.8 163.6, 88.6 149.9 M59.4 189.1 C72.2 182.2, 77.5 172, 96.2 149 M61.3 191.2 C74.7 174.6, 88.7 158.5, 97.1 151 M71.3 189.8 C82.6 175.3, 97 164.3, 103.5 152.6 M70.9 190.8 C82.1 179.5, 90.7 167.2, 105.5 152.2 M78.4 193.1 C89.1 182, 94.9 172.6, 102.8 160.7 M80.1 191.6 C87 183.3, 94.1 174.7, 105.2 162.8 M89.4 193.2 C91.5 185, 96.4 182.5, 106.4 173.8 M89.2 191.2 C92.6 185.7, 98 181.7, 104.6 173.4 M98.3 191.8 C99.2 189.6, 100.5 187.5, 104.8 183.8 M98.1 191.8 C99.3 189.4, 101.9 188.2, 105.1 183.5" stroke-width="1.1"/><path class="s-blue" d="M61.3 148.1 C70.3 148, 79.6 148.2, 100.3 151.5 M61 150.8 C71.3 150.1, 84.5 150.9, 102.5 150.8 M100.9 150.5 C102.8 162.3, 100.8 173.5, 100.8 188.2 M102.3 149.3 C102.8 163.8, 102.6 177.4, 101 190.7 M104.2 191.5 C84.1 189, 67.8 188.4, 61.7 191.1 M101.3 189.1 C89.9 190.7, 79.7 191.4, 59.1 190 M58.1 190.6 C60.5 172.5, 60.2 161.5, 62.1 150.5 M60.3 189.6 C60 179.1, 59.7 166.7, 59 151.1" stroke-width="1.4"/><text class="t-ink" x="81" y="171" font-size="22" font-weight="600" text-anchor="middle" dominant-baseline="middle">1</text><path class="h-blue" d="M102.2 149.8 C102.2 149.8, 102.2 149.8, 102.2 149.8 M102.2 149.8 C102.2 149.8, 102.2 149.8, 102.2 149.8 M102.3 161.9 C105.3 157, 108.7 153.7, 112.3 148.9 M102.7 160.5 C104.1 157.8, 106.1 154.5, 111.5 149.4 M103.7 169.8 C107.9 164.5, 113.3 156.4, 122.3 151 M102.2 171.7 C108.4 163.2, 115 157.3, 120.2 149.3 M103.8 180 C111.6 174.3, 119.6 165.8, 131.4 149.1 M102.1 180.8 C112.9 170.4, 122.1 158.3, 129.4 150.3 M105.2 192 C114.7 177.3, 128.4 164.2, 139.4 149.2 M103.2 190.9 C112.1 180.2, 120.2 170.5, 140.1 150 M111.5 190.8 C125.3 176.1, 134.5 162.5, 144.5 151.4 M113.7 191.2 C119.6 182.4, 127.6 173.7, 146.1 152.3 M123.6 193 C128.2 184.7, 134 175, 145.9 165 M121 190 C128.3 183, 136.1 174.8, 146.5 162.9 M130.2 192.6 C134.3 184.9, 138.9 180, 144.4 174.9 M130.3 190.2 C135.9 184.3, 141.7 179.5, 147.4 173.5 M141.3 191.8 C142.5 187.8, 145 185.6, 147.2 183.5 M140.2 191.3 C141.7 189, 143.6 187.6, 146.4 184.7" stroke-width="1.1"/><path class="s-blue" d="M102.1 151.3 C109.8 151.9, 118.7 148.9, 143.7 149.7 M101.1 150 C115.8 150.2, 127.3 150.3, 145 150.5 M142.4 150.8 C144 162.2, 142.8 175.3, 142.2 189.5 M143.6 149.5 C143.6 158.7, 144.6 165.8, 144.6 190 M145.1 189 C137.2 191, 125.7 189.8, 103.5 188.4 M143.3 190.1 C133.9 189.5, 123.5 189.9, 101 188.9 M101.5 188 C101 177.6, 103.1 168.6, 102.6 151.4 M101.4 189.6 C102.4 178.7, 102.7 169.7, 102.6 151" stroke-width="1.4"/><text class="t-ink" x="123" y="171" font-size="22" font-weight="600" text-anchor="middle" dominant-baseline="middle">1</text><path class="s-ink" d="M142.8 150.2 C153.6 150.4, 162.3 148.6, 187 147.9 M143.5 149.2 C158.1 149.3, 172.3 148.8, 185.3 150.3 M183.9 151.1 C185.3 162, 184.8 177.1, 187.9 190.7 M187 149.8 C185.4 161.6, 185.3 172.4, 185.9 189.2 M186.1 191 C177.5 188.5, 166.7 191.1, 145.4 190.2 M185.4 191 C175.7 191.4, 167.3 191.5, 143 190.1 M144.9 189.9 C142.3 174.6, 142.5 159.6, 143 147.9 M144.8 189.6 C144.9 180.5, 143.5 172.7, 143.9 151" stroke-width="1.4"/><text class="t-ink" x="165" y="171" font-size="22" font-weight="600" text-anchor="middle" dominant-baseline="middle">0</text><path class="s-ink" d="M188 149.1 C193.1 149.9, 205.9 149.3, 225.9 150.5 M185.9 150.6 C200.4 149.4, 215.1 150.5, 227.7 150 M229.8 151.3 C225.6 166.3, 225.9 178.9, 229.2 191.9 M228.2 150 C228.4 164.5, 227.3 176.8, 227.3 190.7 M227.1 188.6 C217.7 190.5, 207.7 188.1, 187.2 192 M227.5 189.8 C219.7 190.2, 211.1 189.9, 187.1 189 M183.9 191.8 C188 179.7, 186.3 171.1, 187.9 148.8 M185.9 189.6 C187.3 174.4, 186.4 159.7, 185.3 151" stroke-width="1.4"/><text class="t-ink" x="207" y="171" font-size="22" font-weight="600" text-anchor="middle" dominant-baseline="middle">0</text><path class="s-ink" d="M228.7 147.9 C236.9 149.3, 245.1 150, 269.2 148.8 M228.3 149.7 C244.8 149.4, 260.1 149.9, 270.2 149.7 M271.3 151.6 C271.3 166.1, 268 180.7, 270.6 188.8 M269.4 150.2 C269.3 159.3, 269.2 167.4, 270.8 190 M268 190.5 C258 188.1, 248.8 189.5, 229 189.3 M269.5 190.7 C253.2 188.9, 238.1 190.6, 229 190.2 M227.3 189.3 C229.3 176.7, 230.1 162.1, 228.3 149.6 M227.1 189.6 C226.6 176.2, 228.5 160.5, 228.9 151" stroke-width="1.4"/><text class="t-ink" x="249" y="171" font-size="22" font-weight="600" text-anchor="middle" dominant-baseline="middle">0</text><path class="s-ink" d="M59.5 191.2 C70.8 187.8, 78.7 189.7, 102.6 191.4 M60.7 188.9 C77.1 189.5, 92.9 191.5, 102.7 189.4 M102.8 191.9 C102.5 206, 104.4 222.5, 101.9 230 M102.9 190.4 C103.3 202.2, 102.1 211.8, 102.2 229.3 M103.4 228.1 C92.7 230.1, 79.8 230.9, 60.8 231.1 M101.6 229.5 C87.2 230.8, 71.9 230, 61 229.1 M60.7 231.2 C60.6 221.8, 59.5 213.6, 58.8 190.5 M60.4 229.6 C59 218, 59.3 203.5, 60.3 191" stroke-width="1.4"/><text class="t-ink" x="81" y="211" font-size="22" font-weight="600" text-anchor="middle" dominant-baseline="middle">0</text><path class="s-ink" d="M100.2 190 C110.2 191.7, 117.9 190.4, 145.9 189.6 M103.1 190.3 C111 190.8, 121.1 190, 142.9 189.2 M144.3 192.2 C143.8 197.8, 146.4 208.3, 143.2 231.3 M144.1 190.6 C144.1 202.9, 144.1 218.4, 143.5 230.8 M144.3 230.1 C133 232.1, 120.8 232.3, 102.6 228.4 M143.7 230.4 C131.2 229.6, 115.7 230.7, 102.9 230.3 M104.1 228.7 C101.9 218.8, 103.3 204.7, 103.6 191.4 M101.5 229.6 C101.4 217.7, 102.3 206.5, 101.7 191" stroke-width="1.4"/><text class="t-ink" x="123" y="211" font-size="22" font-weight="600" text-anchor="middle" dominant-baseline="middle">0</text><path class="s-ink" d="M145.3 188.9 C154.1 190.2, 161.4 190.1, 184.8 187.9 M143.3 189.5 C153.3 190.9, 163.9 189.5, 185.4 191.1 M185.8 188 C184.1 197.7, 187.5 205.7, 184.5 228.1 M185.3 190.9 C185 197.8, 186.1 206.8, 187 230.1 M185.3 232 C173.2 229.7, 161.8 229.3, 144.5 230.2 M185.7 229.1 C173 229.3, 159.5 230.1, 144.8 229.2 M143.1 230.6 C143.2 215.9, 142.7 200.1, 144.1 187.9 M144.9 229.6 C143.9 219.5, 143.1 209.5, 143.1 191" stroke-width="1.4"/><text class="t-ink" x="165" y="211" font-size="22" font-weight="600" text-anchor="middle" dominant-baseline="middle">0</text><path class="s-ink" d="M186.1 192.2 C193.5 189.7, 205 190.8, 228.2 190.5 M185.6 190.9 C197.8 190.9, 208.9 191.1, 227.8 190.8 M227.2 188.3 C229.8 197.5, 229.5 207.5, 225.9 229.4 M228.8 191.1 C228.9 200.7, 229 213.4, 228.4 229.4 M226.2 229.6 C213.5 231.6, 202.9 230.6, 186.3 231.9 M227.8 230.1 C217 230.3, 205.5 230.8, 186.8 230.4 M186.5 228.1 C183.6 220.9, 185.6 207.2, 184.5 188.7 M186 229.6 C186.3 221.3, 186 212.5, 186.7 190.9" stroke-width="1.4"/><text class="t-ink" x="207" y="211" font-size="22" font-weight="600" text-anchor="middle" dominant-baseline="middle">0</text><path class="h-blue" d="M227.9 190.1 C227.9 190.1, 227.9 190.1, 227.9 190.1 M227.9 190.1 C227.9 190.1, 227.9 190.1, 227.9 190.1 M227.1 201.5 C232.6 195.9, 234.9 194.5, 236.9 191.5 M227.3 201.2 C231.9 197.7, 234.4 192.7, 236.4 191 M228.4 213.3 C235.9 206.5, 238.1 197.1, 245 192.2 M228.3 210.7 C234.2 204, 240.2 198.4, 247.2 190.2 M228.6 220.3 C235.1 213.8, 243 206, 253.6 188.2 M228.6 223.1 C237 212.2, 246 202.8, 254.8 189.9 M228.2 232.2 C237.1 220.6, 246.8 211.4, 263.6 189 M228.5 231.4 C237.6 220.1, 248.4 209.3, 265.9 188.7 M238 233.2 C250.9 216.5, 263.2 202.1, 274.8 190.9 M239.3 231.1 C246.2 220.9, 256.6 210.9, 272.7 191.1 M245.9 231 C258.5 221.8, 266.8 211.8, 270.9 200.5 M248.6 230.8 C256.2 221.4, 264.8 212.4, 273 202.6 M257 230.8 C260.8 226.2, 265.2 222.5, 272.3 215 M257.4 232.4 C262.7 225.9, 265.5 220.3, 272 212.6 M265.3 231.2 C269.5 229.6, 270.9 225.7, 273.4 224.9 M266 231.8 C268.7 228.3, 270.6 226.2, 272.4 223.4" stroke-width="1.1"/><path class="s-blue" d="M226.8 191 C237.3 189.1, 244.2 191.4, 271.5 188.7 M228 190.1 C240 190, 251.6 189.6, 270.3 190.6 M268.7 188.6 C271 201.8, 271.5 209.3, 271.6 230.6 M270 189.1 C269.8 203.6, 268.8 217.8, 269.7 230.9 M271.6 231.6 C258.2 229.2, 243.9 232, 228.1 229.3 M269.8 231 C258.8 230, 249.3 230.2, 228.7 229.3 M230 230 C229.4 213.6, 229.4 202.6, 229.4 189.6 M227.2 229.6 C227.8 215.2, 228.1 199.5, 228 190.9" stroke-width="1.4"/><text class="t-ink" x="249" y="211" font-size="22" font-weight="600" text-anchor="middle" dominant-baseline="middle">1</text><path class="s-ink" d="M62 229.9 C66.8 232, 77.8 231.2, 100.4 231.4 M60.4 229.3 C72.3 230.1, 86.6 229, 102.8 230.3 M100.2 228.9 C101.4 241.6, 102.6 251, 102.9 271.8 M101.2 229.3 C101.5 238.5, 101.6 248.4, 101.1 270.1 M102.6 269.1 C88.5 271.2, 74.9 269, 59.9 271.1 M101.9 269.8 C92.8 271, 83.1 270.9, 60.6 270.5 M59 271.9 C60.7 258.6, 58.8 249.7, 59.8 230.5 M60.5 269.6 C60.2 257, 58.9 242.5, 59.4 230.9" stroke-width="1.4"/><text class="t-ink" x="81" y="251" font-size="22" font-weight="600" text-anchor="middle" dominant-baseline="middle">0</text><path class="s-ink" d="M102.7 228.7 C110.6 231.5, 121.4 231.8, 143.7 229.6 M102.8 230.7 C114.6 230.2, 129.4 230.7, 143 230 M146.1 229.1 C142.6 241.5, 144.6 252.8, 144.3 268.7 M144.6 229.6 C144.6 241.4, 143.6 252.9, 144.6 269.4 M143.5 271.1 C128.7 268.8, 111.6 270.4, 101.7 268.4 M144 270.7 C134.7 270.7, 126.8 270.3, 102.6 269.4 M102.4 269.3 C102 255.6, 102.6 245.1, 100.3 231.3 M101.6 269.6 C102.6 258.8, 101.9 245.6, 103 230.9" stroke-width="1.4"/><text class="t-ink" x="123" y="251" font-size="22" font-weight="600" text-anchor="middle" dominant-baseline="middle">0</text><path class="s-ink" d="M143.5 232 C154.5 230, 160.6 231.6, 187.1 227.8 M143 229.9 C159.1 230.2, 172.2 230.1, 185.5 229.7 M187.6 229.4 C188.3 241.4, 186.6 254.6, 185.6 269.9 M185.9 229.8 C185.5 244.3, 185.6 259.5, 186 270.9 M184.5 268.6 C169 270.8, 152.6 271.8, 143.6 270.2 M186 269.4 C170.3 269.5, 153.8 271, 144.5 270.5 M145.8 271.2 C143.3 260.7, 142 252.2, 145.1 227.8 M145 269.6 C145.1 258.4, 144.8 248.6, 144.4 230.9" stroke-width="1.4"/><text class="t-ink" x="165" y="251" font-size="22" font-weight="600" text-anchor="middle" dominant-baseline="middle">0</text><path class="h-blue" d="M185.7 230.3 C185.7 230.3, 185.7 230.3, 185.7 230.3 M185.7 230.3 C185.7 230.3, 185.7 230.3, 185.7 230.3 M186 239.6 C189.9 236.9, 191.7 231.4, 196.5 230.6 M186.2 240.8 C188.2 238.1, 190.9 236.6, 196 229.4 M187.9 250.6 C190.9 245.2, 196.6 241.5, 206.4 227.7 M186.3 251.2 C191.8 245.5, 197.8 237.6, 204.2 229.9 M185.9 262.6 C196.7 250.5, 205.3 239.6, 212.5 229.2 M184.7 262.1 C196.4 249.6, 208.3 235.9, 214.3 230.1 M187.5 271.5 C203.1 254, 217.5 236.8, 224.8 231.4 M187.8 270.9 C198.4 259.3, 207 249.2, 222.3 230.6 M196.9 269.3 C205.1 261.3, 214.6 249.3, 228.3 235.5 M197.7 271.5 C204.8 260.4, 213.4 251.7, 228.6 234.3 M207.1 271.5 C211.2 263.5, 219.4 253.2, 227.6 246 M205.8 271.5 C213.7 261.3, 220.4 254.5, 227.1 244.8 M214 269.3 C221 267.1, 224.1 263, 226.2 256.2 M215.5 271.6 C218.5 267.1, 223.2 263.4, 227.5 256.6 M224.9 270.5 C225.2 270.2, 226.3 268.4, 227.7 267 M224.6 270.8 C225.9 269.4, 227.1 268, 228.2 266.8" stroke-width="1.1"/><path class="s-blue" d="M184.2 230.9 C193.9 229.5, 204.1 232.3, 226 230.5 M185.4 229.1 C201.4 229.4, 217.2 230.8, 227.9 229.5 M229.1 229.7 C229.5 241.2, 228.7 256.4, 226.9 271.2 M227.1 230 C229.4 239.2, 228.5 247.9, 227.3 270.2 M229.8 270.6 C209.3 268.3, 193.6 268.8, 185.4 271.9 M228.1 270.4 C212.1 270.5, 197.6 269.5, 186.4 269.5 M184.8 268.7 C184.6 257.7, 185.8 243.2, 185.6 228.7 M186.1 269.6 C185.3 260.3, 185.6 251.6, 185.8 230.9" stroke-width="1.4"/><text class="t-ink" x="207" y="251" font-size="22" font-weight="600" text-anchor="middle" dominant-baseline="middle">1</text><path class="s-ink" d="M229.3 229.7 C237.8 228.9, 247.7 228.5, 269.3 228.7 M227.8 230.5 C243.6 229.4, 260 230.2, 270.4 229.2 M270.6 230 C269.9 245.5, 269.8 258.2, 268.2 268 M270.5 230.2 C270.3 242, 270.5 254.5, 270.9 269.5 M270.8 268.2 C262.4 270.3, 251.5 270.2, 227.2 269.3 M270.1 269.1 C256.1 270.2, 241.4 271.1, 228.4 270.6 M228.2 270.6 C230.3 254.8, 229.6 238.7, 226 229.6 M227.3 269.6 C227.7 254.1, 228.6 238.6, 227.2 230.9" stroke-width="1.4"/><text class="t-ink" x="249" y="251" font-size="22" font-weight="600" text-anchor="middle" dominant-baseline="middle">0</text><text class="t-soft" x="50" y="90" font-size="18" font-weight="500" text-anchor="end" dominant-baseline="middle">0</text><text class="t-soft" x="50" y="130" font-size="18" font-weight="500" text-anchor="end" dominant-baseline="middle">1</text><text class="t-soft" x="50" y="170" font-size="18" font-weight="500" text-anchor="end" dominant-baseline="middle">2</text><text class="t-soft" x="50" y="210" font-size="18" font-weight="500" text-anchor="end" dominant-baseline="middle">3</text><text class="t-soft" x="50" y="250" font-size="18" font-weight="500" text-anchor="end" dominant-baseline="middle">4</text><text class="t-soft" x="81" y="56" font-size="18" font-weight="500" text-anchor="middle" dominant-baseline="middle">0</text><text class="t-soft" x="123" y="56" font-size="18" font-weight="500" text-anchor="middle" dominant-baseline="middle">1</text><text class="t-soft" x="165" y="56" font-size="18" font-weight="500" text-anchor="middle" dominant-baseline="middle">2</text><text class="t-soft" x="207" y="56" font-size="18" font-weight="500" text-anchor="middle" dominant-baseline="middle">3</text><text class="t-soft" x="249" y="56" font-size="18" font-weight="500" text-anchor="middle" dominant-baseline="middle">4</text><text class="t-soft" x="165" y="300" font-size="20" font-weight="500" text-anchor="middle" dominant-baseline="middle">25 cells, 8 of them are 1</text><text class="t-ink" x="490" y="22" font-size="24" font-weight="700" text-anchor="middle" dominant-baseline="middle">adjacency list</text><path class="h-blue" d="M440.1 69.9 C440.1 69.9, 440.1 69.9, 440.1 69.9 M440.1 69.9 C440.1 69.9, 440.1 69.9, 440.1 69.9 M440.7 79.8 C442.1 77.1, 443.9 73.3, 447.7 69.3 M439.5 79.4 C442.8 76.3, 445.8 72.9, 448.1 70.1 M438.6 90.3 C442.7 82.2, 450.8 76, 454.4 68.4 M440.6 88.2 C445.1 81.9, 449.8 77.5, 455.4 69.4 M442 99 C448.8 88.9, 455.7 83.5, 462.2 70.5 M440.1 97.9 C448.6 87.3, 455.3 79.8, 463.2 69.9 M439.7 103.2 C452.8 92.9, 462 80, 470.8 68.1 M441.2 104.8 C452.7 91.1, 463.9 77.4, 472.5 69.2 M449.7 106.1 C457.8 97.4, 466.1 84.2, 478.3 72.1 M449.1 104.8 C458.1 95.9, 465.7 84.5, 480 69 M459.6 106.1 C465.5 97.6, 470.2 90.3, 478.6 77.6 M456.4 105.2 C466 94.4, 472.7 85.4, 481.3 79 M465.8 102.1 C469.1 100.1, 477.1 94.7, 480 88.6 M465.8 103.8 C468.5 100.6, 474 95.6, 480 87.1 M473.7 104.5 C474.7 102.2, 477.5 100.5, 482 96.5 M474.2 104 C475.8 102, 478.6 98.1, 480.8 96.2" stroke-width="1.1"/><path class="s-blue" d="M440.1 68.6 C446.8 71.8, 456.1 68.3, 480.6 71.3 M440.2 69.6 C449.3 69.5, 457.3 69.6, 480.9 68.9 M480.1 70.2 C479.2 83.1, 479.8 95.7, 482 103.3 M479.8 70.4 C479.2 82.7, 480.5 94.5, 480.2 105 M479.8 104.1 C471.1 106.3, 461.4 105.5, 439 105 M480.2 104.1 C466.5 103, 454.5 103.6, 440.3 103.6 M441.6 102.1 C441.5 95.5, 439 83.2, 440.9 70.4 M440.6 103.6 C439.3 92.1, 440.7 79.9, 440.7 70.9" stroke-width="1.6"/><text class="t-ink" x="460" y="88" font-size="22" font-weight="600" text-anchor="middle" dominant-baseline="middle">1</text><path class="h-blue" d="M479.9 70.1 C479.9 70.1, 479.9 70.1, 479.9 70.1 M479.9 70.1 C479.9 70.1, 479.9 70.1, 479.9 70.1 M479.4 79.6 C482.6 77.8, 483.3 75.7, 487.1 70.1 M479.6 79.1 C481.6 77.4, 482.8 74.7, 487.2 70.4 M478.9 89.8 C486 84, 491.6 78.1, 497.8 70.1 M480.5 89.5 C483.7 85.2, 485.8 80.3, 496.1 70.6 M480.6 97.5 C486.9 86.1, 498.6 75.3, 502.8 68.2 M480.7 98.3 C484.3 92.9, 490.4 86.8, 504.4 70.1 M483.1 106.7 C490.7 96, 497.5 87.6, 511.5 68.9 M480.7 105 C489.1 96.4, 495.4 88, 510.9 71 M488.1 102.5 C498.1 94.1, 505.8 86.9, 517.6 70.6 M490.2 105 C502.3 91.2, 513.5 78.5, 518.8 71.1 M498.6 105.8 C506.8 95.3, 511.8 87.6, 520.6 76.5 M497.6 103.3 C506.2 93.7, 513.9 84.8, 521.5 78.2 M504.1 106.4 C509.8 100.4, 513.5 92.1, 521.3 88.6 M506.6 103.4 C511.8 99.1, 515.9 92.9, 521.6 86.2 M514.5 105.2 C514.6 101.9, 517.7 101.4, 520.3 95.7 M513.7 104 C515.9 101.9, 518.2 98.7, 520.3 96.1" stroke-width="1.1"/><path class="s-blue" d="M478.8 71.8 C488.7 71.3, 497.6 68.9, 522 69.6 M480.5 71 C489.5 68.6, 498 70.4, 519.1 70.9 M519.6 70.5 C518.4 82.9, 519.8 97.3, 521.3 104.5 M519 70.7 C521 78.4, 521.3 86.7, 519.6 104.3 M518.7 106.1 C509.4 103.9, 500.5 102.5, 478.8 102.4 M520.3 105 C508.5 104.8, 496.2 105.1, 480.2 104.7 M478.6 104 C480.1 93.1, 480 79.7, 479.3 71.3 M479.7 103.6 C479.7 93.7, 479.5 82.4, 480.1 70.8" stroke-width="1.6"/><text class="t-ink" x="500" y="88" font-size="22" font-weight="600" text-anchor="middle" dominant-baseline="middle">2</text><text class="t-soft" x="428" y="87" font-size="22" font-weight="500" text-anchor="end" dominant-baseline="middle">0:</text><path class="h-blue" d="M440.2 109.7 C440.2 109.7, 440.2 109.7, 440.2 109.7 M440.2 109.7 C440.2 109.7, 440.2 109.7, 440.2 109.7 M441.3 118.8 C442.8 116.4, 446.4 111.4, 447 110.3 M440.1 118.3 C442.3 116.2, 444.6 113.7, 448 110.2 M439.6 128.7 C445 121.8, 452.1 116.6, 455.9 108.5 M440.8 128.2 C445.2 122.5, 449.8 118.2, 455.9 110.5 M439.7 135.5 C444 129.5, 450.9 123.4, 462.6 111.2 M439.4 138.2 C446.5 130.1, 452 122.5, 462.7 111.3 M442.5 145.2 C451.5 131, 461.9 120.2, 472.6 109.1 M442.8 144.7 C451.3 134.2, 458.5 124.3, 472 110 M450 144.3 C458.5 135.2, 461.6 129.2, 481.7 108.6 M450.3 144 C457.8 133.9, 467.1 124, 480.2 110.4 M456.7 146.5 C463.4 137.9, 468.6 129.8, 481.7 116.4 M458 144.6 C465 133.9, 473.6 125.3, 480.9 118.3 M467.3 145.8 C470.6 140.3, 474 134.1, 481.7 125.3 M465.7 144.7 C469.7 140.8, 473.4 137.3, 480.2 128.5 M473.4 145.2 C476 142.1, 478.1 139.1, 480.8 137.5 M473.7 144.7 C476.2 141.6, 477.8 139.4, 480.7 136.3" stroke-width="1.1"/><path class="s-blue" d="M442 110.7 C450.5 109.8, 459.2 108.7, 478.9 112.2 M440.9 110.2 C449.8 110.9, 460.9 109.8, 479.6 110.6 M479.1 110.8 C482 122.6, 479.7 138.8, 480.6 145.8 M480.4 110.9 C479.9 120.9, 479.1 130.2, 478.9 143.6 M482.1 143.7 C467.7 145.9, 459.6 143.9, 438.7 144.1 M480.3 143.8 C470.5 143.6, 457.9 143.7, 440.2 143.7 M440 145.9 C439.4 133.1, 441.8 125.3, 442.2 112.2 M441.1 143.6 C440 135.3, 440.4 125, 439.5 110.8" stroke-width="1.6"/><text class="t-ink" x="460" y="128" font-size="22" font-weight="600" text-anchor="middle" dominant-baseline="middle">0</text><path class="h-blue" d="M480.1 109.9 C480.1 109.9, 480.1 109.9, 480.1 109.9 M480.1 109.9 C480.1 109.9, 480.1 109.9, 480.1 109.9 M480 118.6 C483.3 117.3, 485.8 114, 489 111.1 M480.1 119.4 C482.5 115.7, 485.9 113.4, 488.4 110.5 M479.9 128.2 C483.8 123.9, 492.5 114.8, 494.3 111 M480.7 127.4 C486.5 120.1, 491.5 114, 495.9 110.2 M478.3 138.4 C485.9 127.3, 493 120.2, 503.2 108.8 M479.9 138.7 C489.2 127.5, 496.7 117.9, 503.9 109.2 M481.4 144.3 C489.4 138.5, 497.4 127.8, 513.3 109.9 M482.3 144.9 C493.1 132.5, 501.3 121.1, 512.5 109.5 M487.8 145.8 C493.9 136.2, 501 131.6, 520.9 111.5 M490.7 145 C500.8 130.4, 514 118.8, 518.9 110.2 M500 146.2 C504.4 135.9, 509.7 131.9, 518.6 120.5 M497.1 144.9 C506.7 133.4, 513.7 125.3, 520.5 118.3 M505.6 145.8 C511.1 140.8, 514.5 132, 522.2 126.1 M506.5 144.3 C510.7 139.5, 514.8 132.9, 521.2 128.3 M514.2 143.6 C516.1 141.6, 518.6 139.5, 519.8 136.1 M513.3 144.8 C516.6 141.4, 518 138.5, 520.9 136.6" stroke-width="1.1"/><path class="s-blue" d="M480.7 109.6 C488 109.2, 496.4 109.3, 520.2 110.4 M479.1 109.4 C490 110.9, 501.6 109.2, 520.1 110.3 M518.5 111.1 C520.4 115.6, 519 122.4, 520 142.6 M519.6 111.1 C518.8 123.4, 519.1 136, 520.5 145 M521 145.6 C510.4 143.5, 498.7 145.3, 478.5 145.9 M520.4 144.7 C510.2 143.3, 501.8 145.2, 480.1 144.8 M481.4 143.4 C478.7 130.6, 479.2 121.8, 480.6 108.7 M480.2 143.6 C480.4 134.7, 479.2 127.6, 478.9 110.8" stroke-width="1.6"/><text class="t-ink" x="500" y="128" font-size="22" font-weight="600" text-anchor="middle" dominant-baseline="middle">2</text><text class="t-soft" x="428" y="127" font-size="22" font-weight="500" text-anchor="end" dominant-baseline="middle">1:</text><path class="h-blue" d="M439.7 150.3 C439.7 150.3, 439.7 150.3, 439.7 150.3 M439.7 150.3 C439.7 150.3, 439.7 150.3, 439.7 150.3 M439.2 157.9 C441.6 154.9, 445.6 153.2, 448.8 148.7 M440.6 158.6 C441.6 156.3, 443.2 154.6, 448 150.3 M440.6 167.2 C447.8 161, 453.8 152.5, 457.5 148.5 M441.1 168.2 C445.4 163.1, 449.8 156.6, 456.4 149.4 M441.8 176.5 C448.4 165.1, 459.9 157.4, 462.9 151.8 M440.8 176.4 C444.4 170.3, 450.9 164.6, 464.4 150.4 M440.1 183.6 C453.1 175, 460.4 161.7, 473.8 150.9 M441.6 185.4 C452.5 171.1, 466 158.1, 470.7 149.3 M449.7 183.2 C460.5 170.3, 473.4 159.8, 480.6 149.6 M448.6 186.2 C458.6 175.4, 467.5 164.4, 480.3 149.5 M457.5 183.2 C466.1 177.7, 473 167.3, 484.3 155.1 M456.9 184.8 C467.4 174.3, 477.3 161.9, 484.4 153.1 M463.1 186.7 C472.4 180, 477.5 171.2, 482.8 161.8 M464.3 184.8 C469.1 181.2, 474.2 175.6, 484.4 163.1 M471.8 184.3 C476.8 179.9, 481.1 174.9, 484.1 170.5 M474.1 185.2 C476.4 179.8, 481.4 176.4, 483.9 172.3" stroke-width="1.1"/><path class="s-blue" d="M439.5 148.4 C449.8 148.7, 458 150, 481.5 148.7 M439.5 150.8 C452.4 151, 464.5 150.8, 480.5 150 M478 151.3 C479.6 159.7, 478.9 164, 479.3 183.8 M481.1 149.1 C480.7 159.1, 479.9 166, 479.8 184.3 M480 183.2 C468.7 185.4, 457.8 182.3, 438.3 183.3 M480.5 183.4 C472.2 184.3, 463.5 183.7, 440 183.8 M438.4 185.3 C437.9 175, 440.9 167.5, 439.1 149.5 M439.4 183.6 C440.8 176.3, 440.1 170.2, 440.5 150.8" stroke-width="1.6"/><text class="t-ink" x="460" y="168" font-size="22" font-weight="600" text-anchor="middle" dominant-baseline="middle">0</text><path class="h-blue" d="M480.2 149.8 C480.2 149.8, 480.2 149.8, 480.2 149.8 M480.2 149.8 C480.2 149.8, 480.2 149.8, 480.2 149.8 M480.6 160.3 C482.4 155.8, 485.2 153.1, 488.2 149.4 M480.7 159.6 C482 157, 484.8 154.1, 488.4 149.3 M480.8 166.6 C483.4 162.3, 487.9 162.3, 495.9 151 M480.9 167.4 C486.6 160.7, 491.5 154.7, 496.4 149.1 M480.4 179.4 C485.4 168.7, 492.2 165.5, 502.9 150.2 M479.1 176.8 C486.9 170.1, 493 162.7, 502.8 151.3 M479.1 187 C486.8 177.3, 496.2 168.4, 510.7 150.8 M481.1 185.6 C488.3 176.2, 497 168.4, 512 150.2 M487.4 184.7 C500.2 171.3, 512.7 157.9, 519.8 148.1 M489 184.9 C496.3 178.2, 500.7 170.4, 519.1 149.3 M495.8 183.6 C502.2 176.2, 509.3 170, 525.7 154.8 M497.5 185.9 C506.4 174.2, 517.2 162.1, 524 153.1 M506.5 185.8 C513.4 179.6, 518.2 172.8, 523.4 162.6 M505.8 185.9 C511 178.8, 516.9 172, 525.4 163 M513.1 185.2 C516.7 179.3, 521.3 176.2, 525.3 173 M513.5 185.1 C516.6 181.6, 520.8 177.5, 525.1 172.1" stroke-width="1.1"/><path class="s-blue" d="M478.2 151.7 C487.3 151.6, 495.2 149.7, 518.5 151.3 M479.9 150 C492.7 150.1, 505.2 149.4, 521 149.8 M521.9 151.6 C518.9 159.5, 518.9 165.6, 518.6 185.1 M520.3 149.3 C519.6 161.5, 520 171.8, 519.2 183.6 M518.9 185.2 C507 183, 496.9 183.7, 478.1 185 M520.5 184.4 C504 184, 489.2 185.3, 480 184.9 M479.8 182.8 C481.6 172.6, 478.3 164, 481.9 150.4 M480.7 183.6 C480.5 171.1, 480.3 159.1, 479.9 150.8" stroke-width="1.6"/><text class="t-ink" x="500" y="168" font-size="22" font-weight="600" text-anchor="middle" dominant-baseline="middle">1</text><text class="t-soft" x="428" y="167" font-size="22" font-weight="500" text-anchor="end" dominant-baseline="middle">2:</text><path class="h-blue" d="M439.8 190.2 C439.8 190.2, 439.8 190.2, 439.8 190.2 M439.8 190.2 C439.8 190.2, 439.8 190.2, 439.8 190.2 M439.1 200.3 C442.7 196.7, 444.3 195.7, 447.4 190.4 M439.2 199.6 C442 196.5, 444.6 192.6, 447.3 189.9 M440.9 210.7 C442.1 204.5, 448.4 200.4, 454.7 188.6 M440.6 209.1 C445.1 204.2, 449.6 197.6, 456.8 190.5 M439.5 217.4 C448.1 206.3, 455 197.9, 463.3 188.1 M440.1 216.7 C449.8 207.7, 457.7 198.7, 463.9 189.5 M442.9 225.6 C451.8 213.1, 460.3 201.9, 471.2 191.8 M441.1 225.3 C450.4 214.2, 459.8 205, 472.3 190 M450 225.8 C460.9 212.1, 468.4 200.3, 478.8 191.2 M449.8 225.4 C457.4 213.7, 467.7 204.3, 479.9 189.3 M459 223.6 C463.8 218.1, 471.1 211.5, 483 194 M456.4 224.2 C468.8 213.7, 478.3 199.5, 484 192.5 M464.6 226 C469.5 220.2, 478.9 210.5, 484.4 202.9 M464.2 225.7 C468 221.5, 473.4 215.3, 484.6 202.3 M474.3 226.4 C476.3 222.5, 477.6 217.2, 483.1 211.2 M472.7 225.3 C477.1 221.4, 480.8 216.3, 484.8 211.3" stroke-width="1.1"/><path class="s-blue" d="M441.3 190.5 C449.1 191, 456.8 190.4, 479.8 189.5 M440.3 189.2 C452.9 190.2, 468.2 191, 479.2 189.5 M481.4 191.9 C481.7 199.2, 478.1 207.2, 478 221.9 M479.5 189.6 C480.7 201.8, 480 215.4, 480.7 222.9 M477.9 222.7 C465.3 225, 456 225, 438 222.4 M480.6 223.1 C465.9 225, 450.9 223.8, 439.9 223.9 M441.2 224.6 C440.9 216.9, 440.1 209.7, 440.4 191.3 M439.8 223.6 C440.9 212.7, 439.1 201.7, 439.3 190.8" stroke-width="1.6"/><text class="t-ink" x="460" y="208" font-size="22" font-weight="600" text-anchor="middle" dominant-baseline="middle">4</text><text class="t-soft" x="428" y="207" font-size="22" font-weight="500" text-anchor="end" dominant-baseline="middle">3:</text><path class="h-blue" d="M439.9 230.1 C439.9 230.1, 439.9 230.1, 439.9 230.1 M439.9 230.1 C439.9 230.1, 439.9 230.1, 439.9 230.1 M440.8 239.7 C442.4 235.5, 444.5 231.7, 447.1 230.9 M439.6 239 C441 237.3, 443 235.4, 448 229.8 M441.4 249.9 C445.6 241.8, 449.1 238.2, 457.8 230.8 M440.8 247.9 C446.7 241.5, 451.6 233, 457.1 229.9 M437.7 256.3 C444.8 250.1, 451.7 246.1, 463.5 230.5 M440.2 257.6 C444.6 251, 449.6 245.5, 464.8 230.1 M442.1 264.3 C451.6 253.4, 463.8 239.7, 472.1 227.9 M440.9 265.1 C453.2 252.3, 463.6 241.5, 471 229.2 M448.7 266.2 C461.4 252.9, 468.2 242.8, 478.4 229.4 M451.1 263.1 C455.9 256.2, 461.7 250, 478.9 231 M458.2 262.9 C464.9 256.8, 467 251, 480.7 237.8 M457.9 264.2 C466.9 254.6, 475.5 242.7, 479.9 238.8 M463.9 264.8 C469.5 256.6, 477.3 254.9, 481.4 247.9 M466 264.2 C471.2 260.1, 474 254.1, 479.8 246.3 M473.1 265.6 C475.8 262.4, 476.8 260.4, 480.7 257.3 M473.2 264.4 C475.2 261.8, 478.2 259.4, 480.6 256.8" stroke-width="1.1"/><path class="s-blue" d="M440.1 229.4 C446.6 229.6, 458.4 230.2, 481.1 232.1 M440.7 230.6 C455.4 230.2, 468.9 230.4, 479.7 229.2 M480.9 232.2 C480.9 239, 478.1 248.8, 481.7 263.2 M480.9 229.8 C480.4 237.5, 480.8 247.5, 480.1 264.4 M481.3 264.7 C468 262.6, 455.1 262, 442.2 264.1 M480.6 264.1 C465.7 263.8, 452.6 264.5, 439.8 265 M438.2 262.1 C440.2 254.5, 441.9 246.2, 438.8 232.2 M439 263.6 C439 254.4, 440 244.3, 440.8 230.8" stroke-width="1.6"/><text class="t-ink" x="460" y="248" font-size="22" font-weight="600" text-anchor="middle" dominant-baseline="middle">3</text><text class="t-soft" x="428" y="247" font-size="22" font-weight="500" text-anchor="end" dominant-baseline="middle">4:</text><text class="t-soft" x="490" y="300" font-size="20" font-weight="500" text-anchor="middle" dominant-baseline="middle">8 entries total</text></svg>
